<?xml version="1.0" encoding="UTF-8" standalone="no"?>
<!DOCTYPE svg PUBLIC "-//W3C//DTD SVG 1.0//EN" "http://www.w3.org/TR/2001/PR-SVG-20010719/DTD/svg10.dtd">
<svg width="26cm" height="14cm" viewBox="145 141 513 271" xmlns="http://www.w3.org/2000/svg" xmlns:xlink="http://www.w3.org/1999/xlink">
  <g id="Background">
    <g>
      <rect style="fill: #ffffff; fill-opacity: 1; stroke-opacity: 1; stroke-width: 2; stroke: #000000" x="554" y="244" width="97" height="38" rx="0" ry="0"/>
      <text font-size="12.8" style="fill: #000000; fill-opacity: 1; stroke: none;text-anchor:middle;font-family:sans-serif;font-style:normal;font-weight:normal" x="602.5" y="266.881">
        <tspan x="602.5" y="266.881">Aligment</tspan>
      </text>
    </g>
    <g>
      <rect style="fill: #ffffff; fill-opacity: 1; stroke-opacity: 1; stroke-width: 2; stroke: #000000" x="379.476" y="245" width="106.525" height="75" rx="0" ry="0"/>
      <text font-size="12.8" style="fill: #000000; fill-opacity: 1; stroke: none;text-anchor:middle;font-family:sans-serif;font-style:normal;font-weight:normal" x="432.738" y="286.381">
        <tspan x="432.738" y="286.381">Repeater</tspan>
      </text>
    </g>
    <g>
      <rect style="fill: #ffffff; fill-opacity: 1; stroke-opacity: 1; stroke-width: 2; stroke: #000000" x="570" y="321" width="87" height="38" rx="0" ry="0"/>
      <text font-size="12.8" style="fill: #000000; fill-opacity: 1; stroke: none;text-anchor:middle;font-family:sans-serif;font-style:normal;font-weight:normal" x="613.5" y="343.881">
        <tspan x="613.5" y="343.881">Controller</tspan>
      </text>
    </g>
    <g>
      <rect style="fill: #ffffff; fill-opacity: 1; stroke-opacity: 1; stroke-width: 2; stroke: #000000" x="250" y="347" width="97" height="40" rx="0" ry="0"/>
      <text font-size="12.8" style="fill: #000000; fill-opacity: 1; stroke: none;text-anchor:middle;font-family:sans-serif;font-style:normal;font-weight:normal" x="298.5" y="370.881">
        <tspan x="298.5" y="370.881">Distance</tspan>
      </text>
    </g>
    <g>
      <path style="fill: #ffffff; fill-opacity: 1; stroke-opacity: 1; stroke-width: 2; stroke: #000000" fill-rule="evenodd" d="M 259.535 302.5 L 315.785,302.5 L 327.035,313.5 L 315.785,324.5 L 259.535,324.5 L 248.285,313.5 L 259.535,302.5z"/>
      <text font-size="12.8" style="fill: #000000; fill-opacity: 1; stroke: none;text-anchor:middle;font-family:sans-serif;font-style:normal;font-weight:normal" x="287.66" y="317.381">
        <tspan x="287.66" y="317.381">Camera</tspan>
      </text>
    </g>
    <g>
      <path style="fill: #ffffff; fill-opacity: 1; stroke-opacity: 1; stroke-width: 2; stroke: #000000" fill-rule="evenodd" d="M 160.905 368 L 221.905,368 L 234.105,379 L 221.905,390 L 160.905,390 L 148.705,379 L 160.905,368z"/>
      <text font-size="12.8" style="fill: #000000; fill-opacity: 1; stroke: none;text-anchor:middle;font-family:sans-serif;font-style:normal;font-weight:normal" x="191.405" y="382.881">
        <tspan x="191.405" y="382.881">Cmd_vel</tspan>
      </text>
    </g>
    <g>
      <path style="fill: #ffffff; fill-opacity: 1; stroke-opacity: 1; stroke-width: 2; stroke: #000000" fill-rule="evenodd" d="M 169.275 311 L 211.575,311 L 220.035,322 L 211.575,333 L 169.275,333 L 160.815,322 L 169.275,311z"/>
      <text font-size="12.8" style="fill: #000000; fill-opacity: 1; stroke: none;text-anchor:middle;font-family:sans-serif;font-style:normal;font-weight:normal" x="190.425" y="325.881">
        <tspan x="190.425" y="325.881">odom</tspan>
      </text>
    </g>
    <g>
      <line style="fill: none; stroke-opacity: 1; stroke-width: 2; stroke: #000000" x1="215.471" y1="329.493" x2="243.225" y2="342.03"/>
      <polygon style="fill: #000000; fill-opacity: 1; stroke-opacity: 1; stroke-width: 2; stroke: #000000" fill-rule="evenodd" points="250.06,345.118 238.888,345.557 243.225,342.03 243.005,336.444 "/>
    </g>
    <g>
      <line style="fill: none; stroke-opacity: 1; stroke-width: 2; stroke: #000000" x1="231.638" y1="375.455" x2="239.343" y2="374.481"/>
      <polygon style="fill: #000000; fill-opacity: 1; stroke-opacity: 1; stroke-width: 2; stroke: #000000" fill-rule="evenodd" points="246.784,373.54 237.49,379.755 239.343,374.481 236.235,369.834 "/>
    </g>
    <g>
      <path style="fill: #ffffff; fill-opacity: 1; stroke-opacity: 1; stroke-width: 2; stroke: #000000" fill-rule="evenodd" d="M 401.988 358 L 462.238,358 C 470.556,358 477.3,363.596 477.3,370.5 C 477.3,377.404 470.556,383 462.238,383 L 401.988,383 C 393.669,383 386.925,377.404 386.925,370.5 C 386.925,363.596 393.669,358 401.988,358z"/>
      <text font-size="12.8" style="fill: #000000; fill-opacity: 1; stroke: none;text-anchor:middle;font-family:sans-serif;font-style:normal;font-weight:normal" x="432.113" y="374.381">
        <tspan x="432.113" y="374.381">distance</tspan>
      </text>
    </g>
    <g>
      <line style="fill: none; stroke-opacity: 1; stroke-width: 2; stroke: #000000" x1="347.985" y1="368.296" x2="376.304" y2="369.038"/>
      <polygon style="fill: #000000; fill-opacity: 1; stroke-opacity: 1; stroke-width: 2; stroke: #000000" fill-rule="evenodd" points="383.801,369.234 373.674,373.971 376.304,369.038 373.935,363.974 "/>
    </g>
    <g>
      <line style="fill: none; stroke-opacity: 1; stroke-width: 2; stroke: #000000" x1="432.209" y1="356.997" x2="432.395" y2="330.741"/>
      <polygon style="fill: #000000; fill-opacity: 1; stroke-opacity: 1; stroke-width: 2; stroke: #000000" fill-rule="evenodd" points="432.449,323.241 437.377,333.277 432.395,330.741 427.378,333.206 "/>
    </g>
    <g>
      <line style="fill: none; stroke-opacity: 1; stroke-width: 2; stroke: #000000" x1="322.761" y1="307.975" x2="369" y2="297.264"/>
      <polygon style="fill: #000000; fill-opacity: 1; stroke-opacity: 1; stroke-width: 2; stroke: #000000" fill-rule="evenodd" points="376.307,295.572 367.693,302.7 369,297.264 365.436,292.957 "/>
    </g>
    <g>
      <polygon style="fill: #ffffff; fill-opacity: 1; stroke-opacity: 1; stroke-width: 2; stroke: #000000" fill-rule="evenodd" points="432.893,142.893 518.999,172.947 432.893,203 346.786,172.947 "/>
      <text font-size="12.8" style="fill: #000000; fill-opacity: 1; stroke: none;text-anchor:middle;font-family:sans-serif;font-style:normal;font-weight:normal" x="432.893" y="176.828">
        <tspan x="432.893" y="176.828">Action</tspan>
      </text>
    </g>
    <g>
      <line style="fill: none; stroke-opacity: 1; stroke-width: 2; stroke: #000000" x1="432.849" y1="203.986" x2="432.806" y2="234.677"/>
      <polygon style="fill: #000000; fill-opacity: 1; stroke-opacity: 1; stroke-width: 2; stroke: #000000" fill-rule="evenodd" points="432.795,242.177 427.809,232.17 432.806,234.677 437.809,232.184 "/>
    </g>
    <g>
      <path style="fill: #ffffff; fill-opacity: 1; stroke-opacity: 1; stroke-width: 2; stroke: #000000" fill-rule="evenodd" d="M 256 214.5 C 270.6,205.875 277.9,203 292.5,203 C 307.1,203 314.4,205.875 329,214.5 L 329,260.5 C 314.4,269.125 307.1,272 292.5,272 C 277.9,272 270.6,269.125 256,260.5 L 256,214.5z"/>
      <path style="fill: none; stroke-opacity: 1; stroke-width: 2; stroke: #000000" d="M 256 214.5 C 270.6,223.125 277.9,226 292.5,226 C 307.1,226 314.4,223.125 329,214.5"/>
      <text font-size="12.8" style="fill: #000000; fill-opacity: 1; stroke: none;text-anchor:middle;font-family:sans-serif;font-style:normal;font-weight:normal" x="292.5" y="247.131">
        <tspan x="292.5" y="247.131">Map</tspan>
      </text>
    </g>
    <g>
      <line style="fill: none; stroke-opacity: 1; stroke-width: 2; stroke: #000000" x1="329.999" y1="249.533" x2="369.218" y2="262.117"/>
      <polygon style="fill: #000000; fill-opacity: 1; stroke-opacity: 1; stroke-width: 2; stroke: #000000" fill-rule="evenodd" points="376.359,264.409 365.31,266.114 369.218,262.117 368.365,256.593 "/>
    </g>
    <g>
      <line style="fill: none; stroke-opacity: 1; stroke-width: 2; stroke: #000000" x1="486" y1="245" x2="544.265" y2="244.143"/>
      <polygon style="fill: #000000; fill-opacity: 1; stroke-opacity: 1; stroke-width: 2; stroke: #000000" fill-rule="evenodd" points="551.764,244.033 541.839,249.179 544.265,244.143 541.692,239.18 "/>
    </g>
    <g>
      <line style="fill: none; stroke-opacity: 1; stroke-width: 2; stroke: #000000" x1="554" y1="282" x2="495.736" y2="282.428"/>
      <polygon style="fill: #000000; fill-opacity: 1; stroke-opacity: 1; stroke-width: 2; stroke: #000000" fill-rule="evenodd" points="488.236,282.484 498.199,277.41 495.736,282.428 498.273,287.41 "/>
    </g>
    <g>
      <path style="fill: #ffffff; fill-opacity: 1; stroke-opacity: 1; stroke-width: 2; stroke: #000000" fill-rule="evenodd" d="M 566.025 175 L 638.425,175 C 648.421,175 656.525,181.716 656.525,190 C 656.525,198.284 648.421,205 638.425,205 L 566.025,205 C 556.029,205 547.925,198.284 547.925,190 C 547.925,181.716 556.029,175 566.025,175z"/>
      <text font-size="12.8" style="fill: #000000; fill-opacity: 1; stroke: none;text-anchor:middle;font-family:sans-serif;font-style:normal;font-weight:normal" x="602.225" y="193.881">
        <tspan x="602.225" y="193.881">Histogram</tspan>
      </text>
    </g>
    <g>
      <line style="fill: none; stroke-opacity: 1; stroke-width: 2; stroke: #000000" x1="602.425" y1="242.995" x2="602.322" y2="215.723"/>
      <polygon style="fill: #000000; fill-opacity: 1; stroke-opacity: 1; stroke-width: 2; stroke: #000000" fill-rule="evenodd" points="602.294,208.223 607.331,218.204 602.322,215.723 597.331,218.241 "/>
    </g>
    <text font-size="12.8" style="fill: #000000; fill-opacity: 1; stroke: none;text-anchor:start;font-family:sans-serif;font-style:normal;font-weight:normal" x="492" y="273">
      <tspan x="492" y="273">Aligment</tspan>
    </text>
    <text font-size="12.8" style="fill: #000000; fill-opacity: 1; stroke: none;text-anchor:start;font-family:sans-serif;font-style:normal;font-weight:normal" x="497" y="237.5">
      <tspan x="497" y="237.5">Images</tspan>
      <tspan x="497" y="253.5"></tspan>
    </text>
    <text font-size="12.8" style="fill: #000000; fill-opacity: 1; stroke: none;text-anchor:start;font-family:sans-serif;font-style:normal;font-weight:normal" x="493" y="340">
      <tspan x="493" y="340">Correction</tspan>
    </text>
    <g>
      <line style="fill: none; stroke-opacity: 1; stroke-width: 2; stroke: #000000" x1="486" y1="320" x2="560.265" y2="320.884"/>
      <polygon style="fill: #000000; fill-opacity: 1; stroke-opacity: 1; stroke-width: 2; stroke: #000000" fill-rule="evenodd" points="567.764,320.973 557.705,325.854 560.265,320.884 557.824,315.855 "/>
    </g>
    <g>
      <path style="fill: #ffffff; fill-opacity: 1; stroke-opacity: 1; stroke-width: 2; stroke: #000000" fill-rule="evenodd" d="M 570.715 388 L 629.815,388 L 641.635,399 L 629.815,410 L 570.715,410 L 558.895,399 L 570.715,388z"/>
      <text font-size="12.8" style="fill: #000000; fill-opacity: 1; stroke: none;text-anchor:middle;font-family:sans-serif;font-style:normal;font-weight:normal" x="600.265" y="402.881">
        <tspan x="600.265" y="402.881">cmd_vel</tspan>
      </text>
    </g>
    <g>
      <line style="fill: none; stroke-opacity: 1; stroke-width: 2; stroke: #000000" x1="613.02" y1="360" x2="612.606" y2="377.268"/>
      <polygon style="fill: #000000; fill-opacity: 1; stroke-opacity: 1; stroke-width: 2; stroke: #000000" fill-rule="evenodd" points="612.426,384.766 607.668,374.649 612.606,377.268 617.665,374.889 "/>
    </g>
  </g>
</svg>
